# xmcd
#
# Track frame offsets:
#	150
#	15460
#	30325
#	47286
#	61506
#	75907
#	86609
#	102060
#	119166
#	135485
#
# Disc length: 2015 seconds
#
# Revision: 2
# Processed by: cddbd v1.5.2PL0 Copyright (c) Steve Scherf et al.
# Submitted via: audiograbber 1.83.01
#
DISCID=6307dd0a
DTITLE=Various Artist - CDX 32
DYEAR=032
DGENRE=Country
TTITLE0=Brooks and Dunn - Boot Scootin' Boogie
TTITLE1=Mary Chapin Carpenter - I Feel Lucky
TTITLE2=Mark Chesnutt - I'll Think Of Something
TTITLE3=Tanya Tucker - If Your Heart Ain't Busy Tonight
TTITLE4=David Lynn Jones - Louise
TTITLE5=Clinton Gregory - She Takes The Sad Out Of Saturday Night
TTITLE6=Cimmaron - What Do You Wear With A Broken Heart
TTITLE7=Ronna Reeves - What If You're Wrong
TTITLE8=Toy Caldlwell - Wrong/Right
TTITLE9=Sammy Kershaw - Yard Sale
EXTD=
EXTT0=
EXTT1=
EXTT2=
EXTT3=
EXTT4=
EXTT5=
EXTT6=
EXTT7=
EXTT8=
EXTT9=
PLAYORDER=
